HIERARCHY
ROOT Hips
{
	OFFSET 0.000000 83.214638 0.000000
	CHANNELS 6 Xposition Yposition Zposition Xrotation Yrotation Zrotation
	JOINT Pelvis
	{
		OFFSET 0.000000 0.000000 0.000000
		CHANNELS 3 Xrotation Yrotation Zrotation
		JOINT LeftUpLeg
		{
			OFFSET 8.479700 -4.795502 -0.379100
			CHANNELS 3 Xrotation Yrotation Zrotation
			JOINT LeftLeg
			{
				OFFSET 0.024144 -32.555107 0.112900
				CHANNELS 3 Xrotation Yrotation Zrotation
				JOINT LeftFoot
				{
					OFFSET -0.024144 -32.638630 -3.012600
					CHANNELS 3 Xrotation Yrotation Zrotation
					JOINT LeftToeBase
					{
						OFFSET 0.970200 -13.225400 11.864200
						CHANNELS 3 Xrotation Yrotation Zrotation
						End Site
						{
							OFFSET 0.000000 12.319262 0.000000
						}
					}
					JOINT LFootTongue
					{
						OFFSET 1.142400 -1.059800 6.665200
						CHANNELS 3 Xrotation Yrotation Zrotation
						End Site
						{
							OFFSET 0.000000 12.319262 0.000000
						}
					}
				}
				JOINT LeftPantLeg
				{
					OFFSET 0.918482 -16.533964 -2.284700
					CHANNELS 3 Xrotation Yrotation Zrotation
					End Site
					{
						OFFSET 0.350399 24.744368 0.000000
					}
				}
			}
		}
		JOINT RightUpLeg
		{
			OFFSET -8.479700 -4.795502 -0.379100
			CHANNELS 3 Xrotation Yrotation Zrotation
			JOINT RightLeg
			{
				OFFSET -0.023144 -32.555092 0.112900
				CHANNELS 3 Xrotation Yrotation Zrotation
				JOINT RightFoot
				{
					OFFSET 0.023144 -32.638641 -3.012700
					CHANNELS 3 Xrotation Yrotation Zrotation
					JOINT RightToeBase
					{
						OFFSET -0.970200 -13.225400 11.864200
						CHANNELS 3 Xrotation Yrotation Zrotation
						End Site
						{
							OFFSET 0.000000 12.319244 0.000000
						}
					}
					JOINT RFootTongue
					{
						OFFSET -1.142200 -1.059800 6.665200
						CHANNELS 3 Xrotation Yrotation Zrotation
						End Site
						{
							OFFSET 0.000000 12.319243 0.000000
						}
					}
				}
				JOINT RightPantLeg
				{
					OFFSET -0.919482 -16.533978 -2.284800
					CHANNELS 3 Xrotation Yrotation Zrotation
					End Site
					{
						OFFSET -0.350400 24.744419 0.000000
					}
				}
			}
		}
	}
	JOINT Spine
	{
		OFFSET 0.000000 7.722000 1.166200
		CHANNELS 3 Xrotation Yrotation Zrotation
		JOINT Spine1
		{
			OFFSET 0.000000 12.024101 0.248800
			CHANNELS 3 Xrotation Yrotation Zrotation
			JOINT Spine2
			{
				OFFSET 0.000000 11.502998 -0.491200
				CHANNELS 3 Xrotation Yrotation Zrotation
				JOINT Neck
				{
					OFFSET 0.000000 18.430702 -3.123100
					CHANNELS 3 Xrotation Yrotation Zrotation
					JOINT Head
					{
						OFFSET 0.000000 9.051102 1.034000
						CHANNELS 3 Xrotation Yrotation Zrotation
						JOINT HairB
						{
							OFFSET 0.208400 24.786102 24.822300
							CHANNELS 3 Xrotation Yrotation Zrotation
							End Site
							{
								OFFSET 0.000000 32.263779 0.000000
							}
						}
						JOINT HairA
						{
							OFFSET -7.081100 24.428299 23.196600
							CHANNELS 3 Xrotation Yrotation Zrotation
							End Site
							{
								OFFSET 0.000000 32.263779 0.000000
							}
						}
						JOINT Hat
						{
							OFFSET 16.728800 15.048294 -15.439601
							CHANNELS 3 Xrotation Yrotation Zrotation
							End Site
							{
								OFFSET 0.000000 32.263779 0.000000
							}
						}
					}
				}
				JOINT LeftShoulder
				{
					OFFSET 6.197800 13.665199 -4.064700
					CHANNELS 3 Xrotation Yrotation Zrotation
					JOINT LeftArm
					{
						OFFSET 7.778100 -0.187103 -1.709300
						CHANNELS 3 Xrotation Yrotation Zrotation
						JOINT LeftForeArm
						{
							OFFSET 22.049376 0.000000 0.000000
							CHANNELS 3 Xrotation Yrotation Zrotation
							JOINT LeftHand
							{
								OFFSET 23.009392 0.000000 0.000000
								CHANNELS 3 Xrotation Yrotation Zrotation
								JOINT LeftHandThumb1
								{
									OFFSET 3.507191 -2.063065 3.133727
									CHANNELS 3 Xrotation Yrotation Zrotation
									JOINT LeftHandThumb2
									{
										OFFSET 3.101337 -1.790558 1.790558
										CHANNELS 3 Xrotation Yrotation Zrotation
										JOINT LeftHandThumb3
										{
											OFFSET 3.058640 -1.765907 1.765906
											CHANNELS 3 Xrotation Yrotation Zrotation
											End Site
											{
												OFFSET -0.415260 3.926476 -0.049563
											}
										}
									}
								}
								JOINT LeftHandIndex1
								{
									OFFSET 11.334419 -0.901459 3.706815
									CHANNELS 3 Xrotation Yrotation Zrotation
									JOINT LeftHandIndex2
									{
										OFFSET 3.283112 0.000000 0.000000
										CHANNELS 3 Xrotation Yrotation Zrotation
										JOINT LeftHandIndex3
										{
											OFFSET 3.323853 0.000000 0.000000
											CHANNELS 3 Xrotation Yrotation Zrotation
											End Site
											{
												OFFSET -1.135597 3.097809 0.402452
											}
										}
									}
								}
								JOINT LeftHandMiddle1
								{
									OFFSET 11.335861 0.000000 0.000000
									CHANNELS 3 Xrotation Yrotation Zrotation
									JOINT LeftHandMiddle2
									{
										OFFSET 3.410492 0.000000 0.000000
										CHANNELS 3 Xrotation Yrotation Zrotation
										JOINT LeftHandMiddle3
										{
											OFFSET 3.312172 0.000000 0.000000
											CHANNELS 3 Xrotation Yrotation Zrotation
											End Site
											{
												OFFSET -1.150200 3.080154 0.400270
											}
										}
									}
								}
								JOINT LeftHandRing1
								{
									OFFSET 11.514786 -0.013176 -3.003090
									CHANNELS 3 Xrotation Yrotation Zrotation
									JOINT LeftHandRing2
									{
										OFFSET 3.053307 0.000000 0.000000
										CHANNELS 3 Xrotation Yrotation Zrotation
										JOINT LeftHandRing3
										{
											OFFSET 3.295807 0.000000 0.000000
											CHANNELS 3 Xrotation Yrotation Zrotation
											End Site
											{
												OFFSET -1.281006 3.013344 0.375733
											}
										}
									}
								}
								JOINT LeftHandPinky1
								{
									OFFSET 10.518692 -0.960396 -5.730441
									CHANNELS 3 Xrotation Yrotation Zrotation
									JOINT LeftHandPinky2
									{
										OFFSET 2.861649 0.000000 0.000000
										CHANNELS 3 Xrotation Yrotation Zrotation
										JOINT LeftHandPinky3
										{
											OFFSET 2.863380 0.000000 0.000000
											CHANNELS 3 Xrotation Yrotation Zrotation
											End Site
											{
												OFFSET -0.843597 2.711159 0.369971
											}
										}
									}
								}
							}
							JOINT LSleeve
							{
								OFFSET 6.676277 -0.344902 -1.011730
								CHANNELS 3 Xrotation Yrotation Zrotation
								End Site
								{
									OFFSET 0.000000 14.885353 0.000000
								}
							}
						}
					}
				}
				JOINT RightShoulder
				{
					OFFSET -6.197800 13.665199 -4.064700
					CHANNELS 3 Xrotation Yrotation Zrotation
					JOINT RightArm
					{
						OFFSET -7.778100 -0.187103 -1.709300
						CHANNELS 3 Xrotation Yrotation Zrotation
						JOINT RightForeArm
						{
							OFFSET -22.049376 0.000000 0.000000
							CHANNELS 3 Xrotation Yrotation Zrotation
							JOINT RightHand
							{
								OFFSET -23.009392 0.000000 0.000000
								CHANNELS 3 Xrotation Yrotation Zrotation
								JOINT RightHandThumb1
								{
									OFFSET -3.507191 -2.063065 3.133727
									CHANNELS 3 Xrotation Yrotation Zrotation
									JOINT RightHandThumb2
									{
										OFFSET -3.101337 -1.790558 1.790558
										CHANNELS 3 Xrotation Yrotation Zrotation
										JOINT RightHandThumb3
										{
											OFFSET -3.058640 -1.765907 1.765906
											CHANNELS 3 Xrotation Yrotation Zrotation
											End Site
											{
												OFFSET 0.415260 3.926476 -0.049563
											}
										}
									}
								}
								JOINT RightHandIndex1
								{
									OFFSET -11.334419 -0.901459 3.706815
									CHANNELS 3 Xrotation Yrotation Zrotation
									JOINT RightHandIndex2
									{
										OFFSET -3.283112 0.000000 0.000000
										CHANNELS 3 Xrotation Yrotation Zrotation
										JOINT RightHandIndex3
										{
											OFFSET -3.323853 0.000000 0.000000
											CHANNELS 3 Xrotation Yrotation Zrotation
											End Site
											{
												OFFSET 1.135597 3.097809 0.402452
											}
										}
									}
								}
								JOINT RightHandMiddle1
								{
									OFFSET -11.335861 0.000000 0.000000
									CHANNELS 3 Xrotation Yrotation Zrotation
									JOINT RightHandMiddle2
									{
										OFFSET -3.410492 0.000000 0.000000
										CHANNELS 3 Xrotation Yrotation Zrotation
										JOINT RightHandMiddle3
										{
											OFFSET -3.312172 0.000000 0.000000
											CHANNELS 3 Xrotation Yrotation Zrotation
											End Site
											{
												OFFSET 1.150200 3.080154 0.400270
											}
										}
									}
								}
								JOINT RightHandRing1
								{
									OFFSET -11.514786 -0.013176 -3.003090
									CHANNELS 3 Xrotation Yrotation Zrotation
									JOINT RightHandRing2
									{
										OFFSET -3.053307 0.000000 0.000000
										CHANNELS 3 Xrotation Yrotation Zrotation
										JOINT RightHandRing3
										{
											OFFSET -3.295807 0.000000 0.000000
											CHANNELS 3 Xrotation Yrotation Zrotation
											End Site
											{
												OFFSET 1.281006 3.013344 0.375733
											}
										}
									}
								}
								JOINT RightHandPinky1
								{
									OFFSET -10.518692 -0.960396 -5.730441
									CHANNELS 3 Xrotation Yrotation Zrotation
									JOINT RightHandPinky2
									{
										OFFSET -2.861649 0.000000 0.000000
										CHANNELS 3 Xrotation Yrotation Zrotation
										JOINT RightHandPinky3
										{
											OFFSET -2.863380 0.000000 0.000000
											CHANNELS 3 Xrotation Yrotation Zrotation
											End Site
											{
												OFFSET 0.843597 2.711159 0.369971
											}
										}
									}
								}
							}
							JOINT RSleeve
							{
								OFFSET -6.676277 -0.344902 -1.011730
								CHANNELS 3 Xrotation Yrotation Zrotation
								End Site
								{
									OFFSET 0.000000 14.885353 0.000000
								}
							}
						}
					}
				}
				JOINT Backpack
				{
					OFFSET 0.000000 -2.471497 36.677502
					CHANNELS 3 Xrotation Yrotation Zrotation
					End Site
					{
						OFFSET 0.000000 20.427315 0.000000
					}
				}
				JOINT Hood
				{
					OFFSET 0.000000 18.754097 -10.431000
					CHANNELS 3 Xrotation Yrotation Zrotation
					JOINT Hood1
					{
						OFFSET 0.000000 -5.011002 -7.685901
						CHANNELS 3 Xrotation Yrotation Zrotation
						End Site
						{
							OFFSET 0.000000 9.175140 0.000000
						}
					}
				}
				JOINT LHoodieString
				{
					OFFSET 5.250500 16.397697 3.089900
					CHANNELS 3 Xrotation Yrotation Zrotation
					JOINT LHoodieString1
					{
						OFFSET 0.257700 -6.364304 3.694600
						CHANNELS 3 Xrotation Yrotation Zrotation
						JOINT LHoodieString2
						{
							OFFSET 0.000000 -9.643799 2.679100
							CHANNELS 3 Xrotation Yrotation Zrotation
							End Site
							{
								OFFSET 0.000000 10.009018 0.000000
							}
						}
					}
				}
				JOINT RHoodieString
				{
					OFFSET -5.250500 16.397697 3.089900
					CHANNELS 3 Xrotation Yrotation Zrotation
					JOINT RHoodieString1
					{
						OFFSET -0.257700 -6.364304 3.694600
						CHANNELS 3 Xrotation Yrotation Zrotation
						JOINT RHoodieString2
						{
							OFFSET 0.000000 -9.643799 2.679100
							CHANNELS 3 Xrotation Yrotation Zrotation
							End Site
							{
								OFFSET 0.000000 10.009018 0.000000
							}
						}
					}
				}
			}
			JOINT LBackpack_Strap
			{
				OFFSET 15.223200 -7.719803 -6.610900
				CHANNELS 3 Xrotation Yrotation Zrotation
				End Site
				{
					OFFSET 0.000000 16.040596 0.000000
				}
			}
			JOINT RBackpack_Strap
			{
				OFFSET -15.223000 -7.719803 -6.610900
				CHANNELS 3 Xrotation Yrotation Zrotation
				End Site
				{
					OFFSET 0.000000 16.040596 0.000000
				}
			}
		}
	}
	JOINT BoyFacialAnim_Joint
	{
		OFFSET 1.000000 -82.208099 -1.550900
		CHANNELS 3 Xrotation Yrotation Zrotation
		End Site
		{
			OFFSET 0.000000 30.012791 0.000000
		}
	}
}
MOTION
Frames: 5
Frame Time: 0.016667
-0.551949 171.246796 1.128308 -4.557005 4.885695 4.242146 -0.000000 -0.000000 0.000000 -6.160023 16.408794 7.895149 10.204486 -7.983987 -0.386979 -1.561729 0.418159 -6.415455 0.000000 0.000003 -0.000000 0.000000 0.000003 -0.000000 -0.000000 -0.000001 0.000000 -1.468415 -10.580948 -5.135994 21.732470 5.850014 0.299224 -24.866680 -1.204575 4.186534 -0.000001 0.000000 0.000000 -0.000001 0.000000 0.000000 -0.000002 0.000000 0.000000 4.643747 -0.688980 1.293129 9.932385 -0.680240 3.008160 9.936602 -0.617923 3.002062 -0.494626 1.768445 -5.437061 5.110712 1.939358 -6.547527 -0.000000 -0.000001 -0.000000 -0.000000 -0.000001 -0.000000 -0.000000 -0.000001 -0.000000 -0.221758 14.341898 -11.465857 4.441018 -10.208758 -60.164486 0.000005 -50.304446 0.000012 20.413446 -0.668126 -4.134515 -3.500373 23.141801 9.972876 -2.408835 12.775491 10.381859 -0.000002 -0.000001 -0.000000 0.080931 1.054715 -8.775027 0.139261 1.380634 -11.520085 -0.000005 0.000001 -0.000000 0.080636 1.052809 -8.759041 0.139661 1.382528 -11.536055 -0.000003 0.000001 -0.000001 0.080933 1.054716 -8.775028 0.139262 1.380626 -11.520088 -0.000004 0.000001 -0.000000 0.683446 5.064141 -8.296761 0.133624 -2.674922 -12.020564 -0.000002 0.000003 -0.000001 0.000001 -0.000001 0.000001 1.119624 3.440111 7.346928 -5.089680 8.252984 56.488451 0.000015 38.764541 -0.000021 3.115014 -7.514408 -6.985632 -7.604783 -2.521695 -16.076773 4.602803 -15.232182 -8.617154 0.000000 0.000001 0.000001 0.672563 -2.988266 25.363078 0.151867 -1.448116 11.972170 -0.000001 -0.000001 -0.000000 0.672555 -2.988263 25.363096 0.151861 -1.448120 11.972153 -0.000003 0.000000 0.000002 0.672563 -2.988255 25.363091 0.151861 -1.448121 11.972169 -0.000002 -0.000001 0.000000 0.672563 -2.988254 25.363084 0.151864 -1.448117 11.972155 -0.000006 0.000000 0.000002 0.000001 -0.000001 0.000000 -0.000000 0.000000 -0.000001 -0.000000 0.000000 -0.000001 -0.000000 0.000000 -0.000001 -0.000000 0.000000 -0.000001 -0.000000 0.000000 -0.000001 -0.000002 -0.000000 -0.000001 -0.000000 0.000000 -0.000001 -0.000000 0.000000 -0.000001 -0.000002 -0.000000 -0.000001 0.000000 0.000000 -0.000000 0.000000 0.000000 -0.000000 -0.000000 -0.000000 0.000000 
-0.569439 171.226166 1.085464 -4.306200 4.889960 4.229352 0.000000 -0.000001 0.000000 -6.677286 16.259125 7.937172 10.681824 -7.981246 -0.386738 -1.846072 0.440468 -6.345856 0.000000 0.000001 0.000000 0.000000 0.000001 0.000000 -0.000000 0.000001 -0.000000 -1.757925 -10.562896 -5.129417 21.772831 5.845634 0.299093 -25.005930 -1.205753 4.125185 -0.000001 -0.000000 0.000001 -0.000001 -0.000000 0.000001 -0.000000 -0.000000 -0.000000 4.615132 -0.685729 1.296787 9.886747 -0.664537 3.002675 9.891312 -0.602347 2.995067 -0.542377 1.841335 -5.558724 5.225227 2.094419 -6.610317 0.000001 0.000000 -0.000000 0.000001 0.000000 -0.000000 0.000001 0.000000 -0.000000 -0.219945 14.506516 -11.612861 4.361425 -10.445360 -59.944677 0.000000 -50.526304 0.000002 20.043448 -0.258917 -4.095656 -3.500374 23.141786 9.972896 -2.408842 12.775502 10.381859 0.000001 -0.000001 0.000001 0.080932 1.054715 -8.774999 0.139272 1.380621 -11.520082 -0.000003 -0.000003 -0.000001 0.080638 1.052804 -8.759040 0.139656 1.382515 -11.536069 -0.000002 -0.000001 0.000002 0.080933 1.054706 -8.775014 0.139270 1.380632 -11.520075 0.000001 -0.000001 -0.000002 0.683441 5.064143 -8.296760 0.133614 -2.674917 -12.020549 0.000002 0.000001 -0.000000 0.000000 0.000000 -0.000002 1.111066 3.468511 7.163198 -4.424841 9.153712 56.002797 0.000006 39.178624 -0.000008 2.112973 -7.565641 -7.684057 -7.604780 -2.521693 -16.076763 4.602800 -15.232188 -8.617197 -0.000001 0.000000 0.000001 0.672573 -2.988273 25.363064 0.151852 -1.448112 11.972162 -0.000002 0.000002 0.000002 0.672567 -2.988271 25.363079 0.151853 -1.448116 11.972169 0.000000 -0.000001 0.000001 0.672575 -2.988261 25.363071 0.151855 -1.448116 11.972170 -0.000001 0.000003 0.000001 0.672571 -2.988260 25.363062 0.151851 -1.448120 11.972160 -0.000000 -0.000001 0.000000 0.000001 -0.000000 0.000000 0.000002 0.000000 -0.000000 0.000002 0.000000 -0.000000 0.000002 0.000000 -0.000000 0.000002 0.000000 -0.000000 0.000002 0.000000 -0.000001 0.000002 0.000000 0.000001 0.000002 0.000000 -0.000000 0.000002 0.000000 -0.000001 0.000002 0.000000 0.000001 0.000000 -0.000000 -0.000000 0.000000 -0.000000 -0.000000 0.000000 -0.000001 0.000000 
-0.581767 171.200317 1.039811 -4.043608 4.914425 4.218131 0.000000 0.000000 -0.000000 -7.276806 16.103781 7.984117 11.301516 -7.802081 -0.377443 -2.217869 0.471960 -6.295637 0.000000 -0.000001 -0.000000 0.000000 -0.000001 0.000000 0.000000 0.000002 -0.000000 -2.075769 -10.543400 -5.128416 21.848856 5.827882 0.298286 -25.171569 -1.208145 4.061035 0.000000 -0.000000 0.000000 0.000000 -0.000000 0.000000 -0.000001 -0.000000 0.000000 4.582916 -0.685812 1.296109 9.837528 -0.656224 2.999173 9.842319 -0.594123 2.990732 -0.552508 1.913018 -5.689796 5.267445 2.253986 -6.652773 0.000002 0.000001 -0.000000 0.000002 0.000001 -0.000000 0.000002 0.000001 -0.000000 -0.217726 14.595751 -11.694878 4.265772 -10.605524 -59.786292 -0.000001 -50.764111 -0.000004 19.817299 0.066164 -4.103483 -3.500373 23.141799 9.972882 -2.408846 12.775500 10.381869 0.000002 -0.000000 -0.000001 0.080923 1.054711 -8.775007 0.139267 1.380634 -11.520070 -0.000003 0.000002 -0.000002 0.080628 1.052799 -8.759034 0.139657 1.382523 -11.536044 0.000003 -0.000000 -0.000003 0.080924 1.054704 -8.775012 0.139262 1.380633 -11.520081 0.000000 0.000001 -0.000000 0.683437 5.064122 -8.296773 0.133613 -2.674889 -12.020538 -0.000001 0.000001 -0.000000 0.000000 0.000001 -0.000001 1.104810 3.548998 6.940645 -3.653390 10.119989 55.385246 0.000008 39.770723 -0.000016 0.971889 -7.983111 -7.726960 -7.604791 -2.521696 -16.076754 4.602802 -15.232179 -8.617195 0.000001 -0.000001 -0.000002 0.672562 -2.988271 25.363071 0.151856 -1.448120 11.972180 0.000001 0.000001 0.000004 0.672565 -2.988267 25.363081 0.151854 -1.448120 11.972169 -0.000003 0.000001 0.000000 0.672564 -2.988259 25.363078 0.151850 -1.448125 11.972173 -0.000000 0.000003 0.000001 0.672565 -2.988264 25.363061 0.151862 -1.448114 11.972175 0.000002 -0.000001 0.000002 0.000000 -0.000001 0.000002 0.000001 -0.000000 0.000000 0.000001 -0.000000 0.000000 0.000001 -0.000000 0.000000 0.000001 -0.000000 0.000000 0.000001 -0.000000 0.000000 -0.000001 -0.000000 0.000000 0.000001 -0.000000 0.000000 0.000001 -0.000000 0.000000 -0.000001 -0.000000 0.000000 -0.000001 -0.000000 -0.000000 -0.000001 -0.000000 -0.000000 0.000000 0.000000 -0.000000 
-0.589194 171.168289 0.986335 -3.769024 4.964418 4.210265 -0.000000 -0.000000 0.000001 -7.972234 15.957617 8.027507 12.088233 -7.296343 -0.351380 -2.663621 0.514465 -6.293075 -0.000000 0.000001 -0.000000 -0.000000 0.000001 -0.000000 -0.000000 0.000002 0.000001 -2.438193 -10.520355 -5.135051 21.980913 5.790302 0.296473 -25.362804 -1.210787 3.989844 -0.000000 0.000000 -0.000000 -0.000000 0.000000 -0.000000 0.000001 -0.000000 -0.000000 4.550056 -0.688935 1.291276 9.789340 -0.654193 2.995627 9.794231 -0.592127 2.986811 -0.544863 1.982233 -5.822368 5.258743 2.411931 -6.675188 -0.000000 0.000000 -0.000000 -0.000000 0.000000 -0.000000 -0.000000 0.000000 -0.000000 -0.216474 14.635953 -11.728229 4.166840 -10.728395 -59.653677 0.000009 -51.016595 0.000016 19.677570 0.328037 -4.160754 -3.500382 23.141794 9.972910 -2.408841 12.775504 10.381881 0.000002 -0.000001 -0.000001 0.080927 1.054714 -8.775015 0.139267 1.380620 -11.520069 -0.000004 0.000001 -0.000005 0.080630 1.052821 -8.759011 0.139660 1.382507 -11.536063 -0.000002 -0.000001 -0.000000 0.080928 1.054718 -8.775012 0.139260 1.380620 -11.520068 -0.000003 0.000001 -0.000004 0.683437 5.064140 -8.296765 0.133617 -2.674903 -12.020561 0.000003 0.000001 0.000002 -0.000001 -0.000001 0.000001 1.100251 3.659959 6.697152 -2.825906 11.105690 54.696141 -0.000007 40.467160 0.000000 -0.149444 -8.609120 -7.429761 -7.604785 -2.521686 -16.076730 4.602798 -15.232177 -8.617222 -0.000000 0.000000 -0.000005 0.672564 -2.988267 25.363095 0.151853 -1.448121 11.972163 -0.000002 0.000000 0.000002 0.672565 -2.988262 25.363103 0.151853 -1.448125 11.972153 -0.000003 0.000000 -0.000000 0.672564 -2.988260 25.363096 0.151856 -1.448120 11.972172 0.000002 0.000001 0.000000 0.672564 -2.988259 25.363093 0.151866 -1.448119 11.972153 -0.000002 -0.000000 0.000000 0.000000 0.000001 0.000000 0.000003 -0.000000 0.000000 0.000003 -0.000000 0.000000 0.000003 -0.000000 0.000000 0.000003 -0.000000 0.000000 0.000003 -0.000000 -0.000001 0.000002 0.000000 0.000000 0.000003 -0.000000 0.000000 0.000003 -0.000000 -0.000001 0.000002 0.000000 0.000000 0.000001 0.000000 0.000000 0.000001 0.000000 0.000000 -0.000000 -0.000000 0.000001 
-0.592415 171.129364 0.919608 -3.490588 5.044833 4.206493 0.000000 -0.000000 0.000000 -8.767770 15.839245 8.056256 13.062927 -6.375818 -0.303977 -3.162963 0.569299 -6.351717 -0.000000 -0.000002 0.000000 -0.000000 -0.000002 0.000000 0.000000 0.000003 0.000000 -2.850432 -10.490834 -5.149481 22.184337 5.721733 0.293079 -25.575251 -1.214598 3.915545 -0.000000 0.000000 -0.000000 -0.000000 0.000000 -0.000000 -0.000001 -0.000000 -0.000000 4.518885 -0.696093 1.278949 9.747389 -0.660640 2.989694 9.752283 -0.598475 2.981115 -0.524609 2.045887 -5.949945 5.185574 2.561495 -6.667640 0.000001 0.000001 -0.000000 0.000001 0.000001 -0.000000 0.000001 0.000001 -0.000000 -0.217901 14.614122 -11.691989 4.068844 -10.818485 -59.539982 -0.000012 -51.290035 -0.000028 19.626680 0.508750 -4.295631 -3.500376 23.141799 9.972890 -2.408847 12.775498 10.381876 0.000003 -0.000001 -0.000000 0.080931 1.054705 -8.775013 0.139269 1.380641 -11.520062 0.000001 -0.000002 -0.000000 0.080635 1.052813 -8.759021 0.139657 1.382519 -11.536066 0.000001 -0.000000 0.000000 0.080933 1.054695 -8.775025 0.139267 1.380642 -11.520055 -0.000000 0.000000 0.000001 0.683450 5.064134 -8.296742 0.133608 -2.674896 -12.020571 -0.000001 -0.000000 0.000001 0.000000 0.000000 0.000003 1.097557 3.801373 6.436559 -1.977650 12.089241 53.953932 -0.000013 41.267614 0.000020 -1.102679 -9.437435 -6.772076 -7.604783 -2.521695 -16.076761 4.602805 -15.232172 -8.617181 0.000001 0.000003 -0.000001 0.672569 -2.988270 25.363095 0.151859 -1.448124 11.972135 0.000003 0.000000 0.000002 0.672565 -2.988266 25.363093 0.151853 -1.448123 11.972142 0.000003 -0.000001 -0.000000 0.672575 -2.988258 25.363090 0.151849 -1.448120 11.972155 -0.000003 0.000001 -0.000001 0.672568 -2.988250 25.363084 0.151853 -1.448128 11.972146 -0.000000 -0.000001 0.000002 0.000003 -0.000000 0.000001 0.000002 -0.000000 -0.000000 0.000002 -0.000000 -0.000000 0.000002 -0.000000 -0.000000 0.000002 -0.000000 -0.000000 0.000002 -0.000000 -0.000000 0.000001 0.000000 -0.000000 0.000002 -0.000000 -0.000000 0.000002 -0.000000 -0.000000 0.000001 0.000000 -0.000000 0.000000 0.000000 0.000000 0.000000 0.000000 0.000000 0.000000 -0.000000 0.000000 
